<?xml version="1.0" encoding="UTF-8"?>
<svg id="Layer_1" data-name="Layer 1" xmlns="http://www.w3.org/2000/svg" viewBox="0 0 250.56 215.52">
  <defs>
    <style>
      .cls-1 {
        fill: #fff;
      }

      .cls-2 {
        fill: #fefefe;
      }
    </style>
  </defs>
  <path class="cls-2" d="M250.56,0v215.52H0V0h250.56ZM246,213.12l-14.62-8.78c-35.45-23.06-75.02-51.33-87.92-93.76-.52-1.72-1.91-5.82-1.99-7.37-.03-.53.68-.67.82-1.15.44-1.51-2-6.67-1.89-8.58.07-1.31,1.06-3.66,1.38-5.12,3.63-16.93,1.82-33.81-6.03-49.26-.65-1.27-3.31-5.18-3.48-6.12-.49-2.64.92-8.84,1.5-11.67.14-.68.97-2.6.42-2.97-.27-.18-5.56-.56-6.36-.6-2.86-.12-5.74.08-8.6.2C79.91-15.96,18.13,1.49,3.36,51.48c-12.65,42.79,16.56,87.53,61.09,91.8,3.56.34,7.48.79,10.76-.9,46.37,16.04,91.67,35.05,136.4,55.1,11.01,4.93,22.29,10.84,33.35,15.37.35.14.64.35,1.05.27Z"/>
  <path class="cls-1" d="M246,213.12c-.41.08-.7-.13-1.05-.27-11.06-4.53-22.34-10.44-33.35-15.37-44.73-20.06-90.03-39.06-136.4-55.1-3.27,1.69-7.19,1.25-10.76.9C19.92,139.01-9.29,94.27,3.36,51.48,18.13,1.49,79.91-15.96,119.21,17.95c2.86-.12,5.73-.31,8.6-.2.8.03,6.1.42,6.36.6.55.37-.28,2.29-.42,2.97-.58,2.84-1.99,9.03-1.5,11.67.17.94,2.83,4.85,3.48,6.12,7.86,15.44,9.67,32.33,6.03,49.26-.31,1.47-1.3,3.81-1.38,5.12-.11,1.91,2.34,7.07,1.89,8.58-.14.48-.84.61-.82,1.15.08,1.55,1.47,5.65,1.99,7.37,12.91,42.43,52.47,70.7,87.92,93.76l14.62,8.78Z"/>
</svg>